<?xml version="1.0" standalone="no"?>
<!DOCTYPE svg PUBLIC "-//W3C//DTD SVG 20010904//EN"
 "http://www.w3.org/TR/2001/REC-SVG-20010904/DTD/svg10.dtd">
<svg version="1.0" xmlns="http://www.w3.org/2000/svg"
 width="708.000000pt" height="708.000000pt" viewBox="0 0 708.000000 708.000000"
 preserveAspectRatio="xMidYMid meet">
<metadata>
Created by potrace 1.14, written by Peter Selinger 2001-2017
</metadata>
<g transform="translate(0.000000,708.000000) scale(0.100000,-0.100000)"
fill="#000000" stroke="none">
<path d="M3460 5224 c-144 -79 -332 -186 -455 -259 -38 -23 -160 -92 -270
-154 -110 -63 -254 -144 -320 -181 -66 -38 -153 -85 -193 -106 -41 -21 -75
-42 -77 -48 -2 -6 -6 -390 -8 -853 -5 -774 -4 -843 11 -856 10 -7 71 -43 137
-79 66 -36 246 -137 400 -223 154 -87 350 -197 435 -245 85 -48 213 -120 284
-160 l129 -73 51 28 c146 80 1076 602 1236 693 l105 60 3 854 2 854 -62 36
c-35 20 -193 109 -353 198 -159 89 -321 180 -360 202 -38 22 -155 88 -260 147
-104 59 -219 126 -255 148 -94 57 -104 58 -180 17z m-579 -795 c179 -95 605
-326 634 -344 17 -11 31 -7 105 34 161 88 325 173 315 163 -5 -6 -52 -33 -103
-60 l-94 -49 79 -45 c184 -106 248 -130 251 -95 3 36 3 56 -1 95 -4 34 -1 42
12 42 13 1 13 2 -3 11 -14 9 -20 8 -27 -2 -4 -7 -11 -10 -16 -6 -4 5 -2 11 5
16 8 4 -5 16 -37 34 -35 18 -51 23 -54 14 -3 -7 -6 -4 -6 6 -1 9 1 17 5 17 15
0 146 -75 151 -86 3 -8 9 -12 13 -9 5 3 36 -10 69 -28 l61 -34 -213 -118
c-116 -65 -266 -148 -332 -184 -66 -36 -129 -71 -140 -78 -19 -11 -20 -27 -26
-320 -3 -169 -6 -267 -7 -218 -1 50 -6 85 -10 79 -8 -13 -69 -25 -119 -24 -32
0 -32 0 -36 -58 -2 -31 -4 11 -5 93 -5 338 -14 540 -26 548 -6 4 -54 32 -106
61 -52 29 -167 93 -255 143 -88 49 -200 111 -249 138 l-88 47 93 52 c126 69
209 120 209 126 0 10 -155 78 -165 72 -5 -4 -18 -5 -27 -4 -9 2 -21 -6 -27
-17 -7 -12 -17 -17 -30 -14 -22 6 -91 -32 -91 -49 0 -6 -12 -8 -29 -5 -29 6
-84 -14 -97 -34 -3 -5 0 -17 8 -26 11 -14 11 -15 -2 -10 -8 4 -23 10 -32 13
-10 4 -18 9 -18 13 0 3 55 36 123 73 67 37 136 76 152 87 17 11 31 20 31 20 1
1 71 -36 155 -80z m-331 -165 c0 -2 -13 2 -30 11 -16 9 -30 18 -30 21 0 2 14
-2 30 -11 17 -9 30 -18 30 -21z m70 -40 c0 -2 -13 2 -30 11 -16 9 -30 18 -30
21 0 2 14 -2 30 -11 17 -9 30 -18 30 -21z"/>
<path d="M4140 4126 c0 -9 5 -16 10 -16 6 0 10 4 10 9 0 6 -4 13 -10 16 -5 3
-10 -1 -10 -9z"/>
<path d="M4175 4100 c3 -5 8 -10 11 -10 2 0 4 5 4 10 0 6 -5 10 -11 10 -5 0
-7 -4 -4 -10z"/>
<path d="M4135 4070 c-3 -6 1 -7 9 -4 18 7 21 14 7 14 -6 0 -13 -4 -16 -10z"/>
<path d="M4093 4064 c4 -4 -1 -13 -11 -20 -23 -18 -1 -18 22 -1 18 13 18 14 0
21 -10 4 -15 4 -11 0z"/>
<path d="M7025 2890 c-3 -6 -5 -23 -3 -38 3 -25 0 -27 -40 -30 -33 -3 -43 -7
-41 -20 3 -31 -1 -42 -13 -39 -8 1 -14 -10 -16 -25 -3 -22 -9 -28 -28 -28 -14
0 -24 -5 -23 -12 4 -33 -2 -50 -15 -45 -10 4 -13 1 -9 -9 3 -7 12 -14 20 -14
12 0 13 -3 3 -15 -6 -8 -9 -19 -5 -25 4 -7 -2 -7 -19 0 -24 9 -25 7 -28 -31
-2 -21 -7 -38 -11 -37 -11 4 -29 -30 -22 -41 3 -5 1 -13 -5 -16 -6 -4 -10 -3
-9 2 4 21 -3 21 -21 3 -11 -11 -20 -23 -20 -26 0 -3 -10 -14 -22 -25 -13 -10
-18 -18 -11 -19 6 0 15 5 18 10 3 6 10 10 16 10 5 0 9 -4 9 -10 0 -5 -7 -10
-15 -10 -8 0 -15 -4 -15 -10 0 -5 -13 -10 -30 -10 -20 0 -30 -5 -30 -15 0 -8
-7 -15 -15 -15 -8 0 -15 -7 -15 -15 0 -8 -5 -15 -10 -15 -20 0 -60 -48 -54
-64 3 -9 1 -16 -5 -16 -6 0 -11 -7 -11 -16 0 -11 -6 -15 -19 -11 -12 3 -18 -1
-17 -12 0 -9 -5 -15 -13 -13 -9 2 -11 -3 -7 -15 6 -17 5 -17 -8 0 -12 16 -14
16 -20 2 -3 -9 -2 -14 3 -11 13 9 23 -25 11 -39 -5 -6 -6 -15 -2 -20 4 -4 -3
-3 -15 4 -18 9 -25 7 -45 -14 -12 -14 -31 -25 -40 -25 -10 0 -18 -6 -18 -13 0
-8 10 -13 21 -13 12 1 24 -5 27 -13 3 -9 0 -12 -10 -8 -9 3 -21 0 -27 -6 -8
-8 -11 -8 -11 1 0 7 -10 12 -22 12 -21 0 -21 0 -2 -14 18 -14 18 -15 -9 -38
-15 -13 -27 -34 -27 -46 0 -17 -6 -22 -24 -22 -13 0 -26 -7 -30 -15 -9 -24
-28 -18 -21 8 5 19 5 20 -5 4 -7 -10 -9 -25 -6 -34 4 -10 -1 -17 -15 -20 -16
-4 -17 -8 -7 -14 10 -7 10 -9 1 -9 -7 0 -13 -7 -13 -15 0 -8 -5 -15 -10 -15
-6 0 -10 8 -8 18 2 11 -3 16 -14 14 -9 -1 -19 2 -23 8 -3 5 -11 10 -16 10 -6
0 -3 -7 5 -16 23 -22 20 -34 -9 -34 -14 0 -25 -6 -25 -13 0 -21 -37 -50 -55
-44 -8 4 -15 2 -15 -2 0 -5 6 -11 13 -14 6 -2 9 -8 5 -12 -4 -4 -14 -2 -22 4
-11 9 -16 9 -22 0 -5 -9 -10 -7 -16 7 -7 16 -8 15 -4 -4 6 -31 -3 -54 -18 -45
-6 3 -2 -3 8 -15 21 -25 6 -30 -18 -7 -8 9 -17 11 -21 6 -3 -5 -1 -12 5 -16 5
-3 10 -12 10 -18 0 -8 -3 -9 -8 -1 -4 6 -14 13 -23 16 -11 4 -15 0 -15 -16 1
-16 -6 -22 -26 -24 -16 -2 -28 -8 -28 -13 0 -5 -7 -9 -15 -9 -8 0 -15 -7 -15
-15 0 -9 -9 -15 -25 -15 -14 0 -28 -7 -31 -15 -4 -8 -17 -15 -30 -15 -15 0
-24 -6 -24 -15 0 -8 -7 -15 -15 -15 -8 0 -15 -5 -15 -11 0 -14 -25 -39 -39
-39 -6 0 -11 -7 -11 -16 0 -11 -8 -15 -27 -14 -55 4 -63 1 -63 -24 0 -14 -4
-28 -10 -31 -5 -3 -10 1 -10 9 0 9 -7 16 -16 16 -12 0 -15 -6 -10 -25 4 -14 2
-25 -3 -25 -5 0 -12 8 -14 18 -4 16 -5 16 -6 0 0 -10 -6 -18 -12 -18 -6 0 -9
-6 -6 -12 3 -9 -7 -14 -30 -16 -37 -2 -78 -32 -55 -40 6 -2 12 -8 12 -14 0 -6
-8 -4 -18 5 -24 22 -72 23 -72 1 0 -12 -6 -15 -21 -11 -12 3 -22 0 -26 -9 -3
-8 -16 -14 -29 -14 -14 0 -27 -7 -30 -15 -4 -8 -15 -15 -26 -15 -12 0 -17 4
-12 12 4 7 3 8 -4 4 -7 -4 -12 -15 -12 -25 0 -10 -9 -21 -20 -24 -11 -3 -20
-1 -20 4 0 13 -64 -2 -73 -18 -5 -7 -12 -11 -18 -8 -5 4 -9 0 -9 -7 0 -10 -2
-10 -9 1 -7 11 -10 10 -18 -3 -6 -11 -25 -18 -59 -20 -42 -2 -49 -6 -48 -23 0
-15 -4 -19 -15 -15 -14 5 -14 3 -2 -11 7 -9 10 -17 6 -17 -4 0 -14 8 -21 18
-16 21 -47 6 -52 -27 -2 -11 -9 -21 -17 -21 -15 0 -29 46 -18 63 4 7 0 7 -10
-2 -9 -7 -17 -22 -17 -33 0 -17 -6 -20 -38 -16 -27 2 -44 -2 -57 -15 -10 -9
-23 -16 -28 -14 -13 4 -4 22 11 21 6 -1 12 2 12 7 0 10 -81 0 -90 -10 -9 -11
-61 -31 -55 -21 3 5 -7 8 -25 7 -16 -1 -30 -8 -30 -14 0 -9 -18 -13 -56 -13
-49 0 -56 -2 -52 -18 7 -24 -18 -47 -26 -25 -5 12 -16 14 -60 9 -31 -4 -57 -3
-60 2 -4 6 -20 7 -42 2 -20 -5 -74 -8 -120 -7 -82 2 -84 1 -84 -21 0 -13 -4
-20 -10 -17 -6 3 -10 1 -10 -5 0 -6 -5 -8 -11 -4 -7 4 -21 8 -33 9 -36 4 -37
5 -30 17 4 7 3 8 -5 4 -9 -6 -9 -11 1 -24 12 -14 10 -14 -10 -3 -13 7 -36 9
-57 5 -36 -7 -44 2 -22 26 6 8 0 4 -15 -9 -17 -15 -24 -29 -20 -40 3 -9 -6 -4
-21 12 -31 30 -39 34 -32 15 4 -10 -23 -13 -115 -13 -66 0 -120 3 -120 8 0 4
5 7 11 7 5 0 7 5 3 11 -3 6 -9 7 -13 3 -7 -11 -81 -12 -81 -1 0 4 5 7 12 7 6
0 9 2 6 5 -10 11 -37 -7 -31 -21 4 -11 0 -12 -26 -3 -17 6 -59 9 -95 7 -46 -2
-62 0 -55 8 7 8 -18 13 -86 18 -52 4 -99 4 -105 1 -5 -3 -10 -1 -10 5 0 8 -18
9 -58 4 -49 -5 -60 -4 -65 10 -5 13 -23 16 -102 16 -78 0 -95 3 -95 15 0 12
-14 15 -70 15 -40 0 -70 4 -70 10 0 6 -22 10 -50 10 -35 0 -52 5 -58 17 -7 12
-23 16 -71 14 -47 -1 -63 2 -67 14 -3 8 -17 15 -30 15 -15 0 -24 6 -24 15 0
12 -14 15 -70 15 -51 0 -70 4 -69 13 3 27 -2 47 -12 47 -6 0 -8 -10 -5 -22 3
-13 3 -18 0 -11 -3 7 -12 9 -20 6 -8 -3 -14 0 -14 6 0 13 -45 15 -68 2 -12 -6
-22 -4 -32 7 -13 14 -12 15 2 9 12 -4 15 -2 11 9 -3 7 -16 14 -29 14 -15 0
-24 6 -24 15 0 10 -10 15 -29 15 -17 0 -31 6 -35 15 -3 10 -14 14 -30 11 -17
-3 -23 -1 -20 8 6 17 -43 28 -51 12 -3 -6 -3 4 -2 22 l4 32 -25 -22 -25 -23
19 30 18 30 -22 -19 c-19 -16 -22 -17 -22 -3 0 8 6 17 13 20 6 2 -2 4 -19 3
-24 -1 -30 -5 -26 -18 3 -12 -1 -18 -13 -18 -12 0 -16 6 -12 19 3 13 0 18 -8
15 -7 -3 -16 -1 -20 5 -3 6 -12 11 -18 11 -7 0 -6 -4 3 -11 13 -9 13 -10 0 -6
-9 2 -14 13 -12 25 3 19 -2 22 -27 22 -21 0 -31 5 -31 15 0 9 -9 15 -24 15
-13 0 -26 7 -30 15 -3 8 -17 15 -31 15 -15 0 -25 6 -25 14 0 9 -12 16 -27 18
-20 2 -28 9 -28 23 0 14 -8 21 -27 23 -16 2 -28 9 -28 18 0 8 -6 14 -13 14 -7
0 -17 10 -22 23 -7 16 -19 22 -42 22 -18 1 -36 4 -40 9 -4 5 2 5 15 2 16 -6
22 -3 22 8 0 9 -4 16 -9 16 -6 0 -18 14 -28 30 -9 17 -25 30 -34 30 -26 0 -49
11 -49 22 0 6 7 5 15 -2 9 -7 18 -10 22 -6 8 7 -27 35 -44 36 -7 0 -13 7 -13
15 0 8 -7 15 -15 15 -10 0 -15 10 -15 30 0 28 -2 30 -40 30 -37 0 -40 2 -41
28 -1 15 -1 30 0 34 0 4 -6 5 -14 2 -8 -3 -13 -11 -12 -16 1 -6 -4 -13 -10
-15 -12 -4 -18 17 -14 41 1 5 -5 4 -13 -3 -13 -11 -17 -10 -22 3 -3 9 -4 25
-1 36 3 13 0 20 -9 20 -8 0 -14 4 -14 10 0 20 -71 80 -96 80 -14 0 -22 4 -19
10 3 6 -1 10 -9 10 -9 0 -16 7 -16 15 0 8 -7 15 -15 15 -21 0 -19 17 3 24 9 3
-2 4 -26 3 -25 -2 -41 2 -39 8 2 5 15 9 28 8 22 -2 22 -2 4 6 -11 5 -23 7 -26
5 -4 -2 -9 6 -12 17 -3 12 -10 18 -16 14 -15 -9 -14 18 1 34 11 11 9 11 -9 2
-28 -14 -33 -14 -33 4 0 8 -10 20 -22 26 -32 17 -48 41 -37 55 11 13 -16 28
-32 19 -5 -4 -6 2 -2 11 4 12 3 15 -5 10 -8 -5 -12 0 -12 13 0 12 -7 21 -15
21 -9 0 -15 9 -15 24 0 14 -10 30 -24 40 -14 9 -26 27 -28 43 -2 22 -9 29 -30
31 -25 3 -28 7 -28 43 0 35 -3 39 -25 39 -18 0 -26 7 -31 25 -4 14 -4 29 0 32
3 4 6 -3 6 -15 0 -11 5 -24 10 -27 6 -4 10 7 10 24 0 17 -4 31 -10 31 -5 0
-10 9 -10 20 0 12 -7 20 -16 20 -12 0 -15 7 -12 30 3 17 3 30 1 30 -11 0 -33
-30 -33 -44 0 -11 -8 -16 -28 -14 -15 1 -40 1 -55 0 l-28 -2 4 -757 c3 -722 4
-762 24 -848 31 -136 69 -239 129 -356 196 -377 548 -638 979 -726 86 -17 205
-18 2410 -18 2188 0 2325 1 2408 18 290 59 540 197 743 409 181 190 294 406
357 680 20 90 21 121 24 921 3 675 2 827 -9 827 -10 0 -9 3 2 10 17 10 14 15
-17 24 -12 4 -24 2 -28 -4z m25 -10 c0 -5 -4 -10 -10 -10 -5 0 -10 5 -10 10 0
6 5 10 10 10 6 0 10 -4 10 -10z m-6965 -180 c4 -6 -6 -10 -22 -9 -25 0 -26 1
-8 9 11 5 21 9 22 9 1 1 5 -3 8 -9z m-9 -40 c0 -11 -4 -20 -8 -20 -4 0 -8 9
-8 20 0 11 4 20 8 20 4 0 8 -9 8 -20z m6611 -356 c-3 -3 -12 -4 -19 -1 -8 3
-5 6 6 6 11 1 17 -2 13 -5z m-120 -73 c0 -11 -5 -18 -9 -15 -4 3 -5 11 -1 19
7 21 12 19 10 -4z m-5880 -227 c-3 -3 -12 -4 -19 -1 -8 3 -5 6 6 6 11 1 17 -2
13 -5z m4623 -765 c0 -11 -27 -12 -34 -1 -2 4 4 9 15 9 10 1 19 -2 19 -8z
m-530 -213 c0 -2 -7 -7 -16 -10 -8 -3 -12 -2 -9 4 6 10 25 14 25 6z m-300 -46
c0 -5 -7 -10 -15 -10 -8 0 -15 5 -15 10 0 6 7 10 15 10 8 0 15 -4 15 -10z
m-93 -32 c-3 -8 -6 -5 -6 6 -1 11 2 17 5 13 3 -3 4 -12 1 -19z"/>
<path d="M51 2804 c0 -11 3 -14 6 -6 3 7 2 16 -1 19 -3 4 -6 -2 -5 -13z"/>
<path d="M420 2294 c0 -3 7 -12 15 -20 16 -17 18 -14 9 10 -6 15 -24 23 -24
10z"/>
<path d="M820 1910 c0 -5 5 -10 10 -10 6 0 10 5 10 10 0 6 -4 10 -10 10 -5 0
-10 -4 -10 -10z"/>
<path d="M3549 1755 c-6 -5 -322 -19 -373 -16 -16 1 -43 -3 -60 -8 -17 -6 -62
-12 -101 -15 -38 -3 -88 -10 -110 -15 -22 -6 -57 -11 -77 -11 -21 0 -38 -5
-38 -11 0 -6 -7 -9 -15 -5 -8 3 -15 2 -15 -2 0 -4 -14 -9 -31 -10 -17 -1 -43
-9 -58 -17 -16 -8 -38 -11 -51 -8 -19 5 -22 3 -17 -11 4 -11 1 -19 -10 -23
-62 -24 -71 -82 -20 -126 25 -22 39 -27 62 -22 28 5 28 5 10 -10 -19 -14 -19
-15 -1 -8 13 4 17 3 12 -5 -11 -18 13 -24 30 -8 21 22 27 20 14 -4 -11 -21 3
-29 16 -9 5 8 9 8 14 -1 4 -7 23 -13 42 -14 19 -2 40 -6 47 -11 7 -4 36 -9 65
-12 43 -3 63 -6 106 -18 26 -6 59 -18 77 -27 17 -8 26 -8 37 1 9 7 24 10 37 6
11 -4 37 -7 58 -7 20 0 46 -6 58 -14 26 -16 37 -18 29 -5 -4 5 5 6 21 2 16 -4
48 -4 72 1 24 4 47 6 51 3 4 -2 70 -6 148 -7 77 -2 138 -6 136 -10 -5 -7 42
-1 66 9 21 9 40 14 75 20 17 3 35 10 41 14 7 6 16 4 24 -6 12 -15 44 -15 57 0
5 4 3 5 -4 1 -6 -3 -14 -2 -17 2 -7 11 106 8 124 -3 8 -5 11 -4 6 3 -12 21
112 41 126 21 6 -10 7 -7 3 9 -6 22 -5 23 32 16 21 -4 40 -8 42 -10 2 -2 10 3
18 11 8 8 29 15 48 15 18 0 35 4 37 10 2 7 35 14 91 19 5 1 5 10 2 22 -6 18
-3 20 22 17 27 -3 28 -2 31 49 3 44 0 53 -18 63 -12 6 -18 16 -14 23 4 7 4 9
0 5 -5 -4 -25 2 -44 13 -20 10 -44 19 -54 19 -9 0 -21 6 -25 14 -4 8 -15 14
-23 13 -29 -3 -120 15 -120 24 0 5 -3 8 -7 7 -5 -1 -24 2 -43 5 -19 4 -53 9
-75 11 -22 3 -40 5 -40 6 0 7 -310 25 -435 25 -41 0 -78 3 -81 8 -3 4 -8 5
-10 2z m931 -309 c0 -11 -19 -15 -25 -6 -3 5 1 10 9 10 9 0 16 -2 16 -4z
m-105 -26 c3 -5 1 -10 -4 -10 -6 0 -11 5 -11 10 0 6 2 10 4 10 3 0 8 -4 11
-10z"/>
<path d="M4560 1535 c-7 -9 -8 -15 -2 -15 5 0 12 7 16 15 3 8 4 15 2 15 -2 0
-9 -7 -16 -15z"/>
<path d="M2877 989 c7 -7 15 -10 18 -7 3 3 -2 9 -12 12 -14 6 -15 5 -6 -5z"/>
<path d="M2955 979 c-11 -16 -1 -19 13 -3 7 8 8 14 3 14 -5 0 -13 -5 -16 -11z"/>
</g>
</svg>
